<svg width="42" height="42" viewBox="0 0 42 42" fill="none" xmlns="http://www.w3.org/2000/svg">
  <circle cx="21" cy="21" r="21" fill="#F9F9F9"/>
  <g clipPath="url(#clip0_3223_4096)">
    <path d="M25.3091 16.0506C25.5853 16.0506 25.8091 15.8267 25.8091 15.5506V13.1465C25.8091 12.8965 25.6245 12.6849 25.3768 12.6511C25.1115 12.6149 24.2636 12.54 23.2834 12.54C22.1763 12.54 21.1935 12.8877 20.4871 13.602C19.7806 14.3164 19.4054 15.3421 19.4054 16.5926V18.21H17.6931C17.417 18.21 17.1931 18.4339 17.1931 18.71V21.3976C17.1931 21.6738 17.417 21.8976 17.6931 21.8976H19.4054V28.16C19.4054 28.4362 19.6292 28.66 19.9054 28.66H22.6177C22.8939 28.66 23.1177 28.4362 23.1177 28.16V21.8982H24.7405C24.9926 21.8982 25.2053 21.7106 25.2366 21.4605L25.5736 18.7729C25.5915 18.6305 25.5473 18.4874 25.4524 18.3798C25.3575 18.2723 25.2209 18.2107 25.0775 18.2107H23.1171V16.8595C23.1174 16.491 23.1737 16.3184 23.2456 16.231C23.2987 16.1663 23.4439 16.0506 23.9187 16.0506H25.3091Z" stroke="#393939" strokeLinecap="round" strokeLinejoin="round"/>
  </g>
  <defs>
    <clipPath id="clip0_3223_4096">
      <rect width="11" height="18" fill="white" transform="translate(16 11)"/>
    </clipPath>
  </defs>
</svg>
