<svg width="42" height="42" viewBox="0 0 42 42" fill="none" xmlns="http://www.w3.org/2000/svg">
      <circle cx="21" cy="21" r="21" fill="#F9F9F9"/>
      <path d="M26.9745 16.9342C26.7358 16.1048 26.3526 15.4066 25.8022 14.7999C25.2642 14.2063 24.645 13.7563 23.9094 13.4238C23.0713 13.0461 22.0998 12.8626 21.1716 12.9069C20.833 12.9227 20.5022 12.9411 20.178 12.9893C19.2646 13.1237 18.4601 13.4038 17.7191 13.8454C16.7733 14.4102 16.0349 15.1779 15.5244 16.1277C15.2593 16.6221 14.9983 17.4938 14.8874 18.063C14.7561 18.7344 14.8717 19.8985 15.1352 20.555C15.4644 21.3734 15.7352 21.7362 16.3958 22.2425C16.3999 22.2454 16.8082 22.5478 17.0802 22.5433C17.5756 22.5336 17.6742 22.0461 17.7213 21.8118C17.7301 21.7676 17.7389 21.724 17.7493 21.6829C17.7584 21.6468 17.7703 21.608 17.7826 21.5676C17.8526 21.335 17.9478 21.0164 17.7898 20.734C17.7305 20.6281 17.6601 20.5457 17.5982 20.4733C17.5646 20.4339 17.5307 20.3958 17.5033 20.3537C17.2684 19.9948 17.1493 19.5457 17.1493 19.0191C17.1493 18.328 17.3014 17.7018 17.6145 17.1054C18.1825 16.0234 19.1248 15.3407 20.3401 15.13C21.0318 15.0108 21.8378 15.0609 22.4425 15.2599C22.995 15.4422 23.4652 15.7643 23.8026 16.1924C24.1597 16.6453 24.3639 17.2198 24.4091 17.9002C24.4387 18.3344 24.4004 18.7719 24.3686 19.0624C24.2464 20.1806 23.9301 21.0807 23.4282 21.7382C23.017 22.2777 22.5738 22.5482 22.0728 22.5656C21.7502 22.5785 21.5089 22.5107 21.2909 22.3501C21.0852 22.1992 20.9627 22.0131 20.9049 21.7653C20.8396 21.4823 20.9184 21.1889 21.0023 20.8781L21.0158 20.8284C21.089 20.555 21.1656 20.3053 21.2407 20.0594C21.3588 19.672 21.4813 19.2717 21.5821 18.8071C21.6961 18.2827 21.7112 17.8592 21.6286 17.5132C21.5268 17.0834 21.3022 16.7616 20.9611 16.5562C20.6002 16.3397 20.0888 16.298 19.6594 16.4499C19.0196 16.6744 18.5314 17.2721 18.32 18.0895C18.2129 18.5047 18.1818 18.9406 18.228 19.3838C18.2635 19.7315 18.3392 20.0475 18.479 20.429C18.4743 20.4455 18.4692 20.463 18.4642 20.4798C18.4542 20.5137 18.4451 20.5466 18.4382 20.5747C18.2877 21.2209 18.1413 21.8581 17.9953 22.4939C17.8567 23.0977 17.7179 23.7006 17.5762 24.3097L17.5442 24.446C17.3991 25.0663 17.2495 25.708 17.2147 26.474L17.199 26.7939C17.1682 27.389 17.1371 28.0045 17.2147 28.5738C17.2301 28.6849 17.264 28.934 17.5024 29.0209C17.5737 29.0759 17.6422 29.0991 17.7088 29.0991C17.9082 29.0991 18.0857 28.8907 18.2368 28.714C18.7296 28.1376 19.1487 27.4097 19.5181 26.4895C19.6833 26.0779 19.7929 25.635 19.8988 25.2065L19.9625 24.9513C20.0398 24.6463 20.1155 24.3371 20.1906 24.0311L20.1956 24.0108C20.3348 24.1362 20.4956 24.2492 20.6819 24.3542C21.0761 24.5788 21.5209 24.7096 22.0033 24.7429C22.4557 24.7746 22.9319 24.7148 23.4574 24.5597C23.8566 24.4428 24.2386 24.2647 24.5935 24.0311C25.867 23.1924 26.7349 21.7253 27.0377 19.9001C27.1284 19.3548 27.1671 18.9163 27.1671 18.4343C27.1664 17.8792 27.1021 17.3739 26.9745 16.9342ZM26.4179 19.7925C26.1449 21.4364 25.3766 22.7488 24.254 23.488C23.9505 23.688 23.6242 23.8396 23.2834 23.9397C22.8292 24.0741 22.4233 24.1261 22.0451 24.0996C21.649 24.0722 21.3026 23.9711 20.9837 23.7895C20.6649 23.6102 20.4582 23.4153 20.3131 23.1578L19.928 22.4735L19.5809 23.8748C19.5065 24.1788 19.4311 24.4864 19.3541 24.7898L19.2897 25.0489C19.1845 25.4737 19.0855 25.8753 18.937 26.2443C18.6062 27.0688 18.2368 27.7211 17.8096 28.2355C17.7763 27.7977 17.8014 27.3066 17.8259 26.8294L17.842 26.5057C17.8737 25.8007 18.0166 25.1897 18.1545 24.5988L18.1869 24.4615C18.3285 23.8522 18.4674 23.2483 18.6062 22.6441C18.7523 22.0086 18.8983 21.3721 19.0485 20.7276C19.0529 20.7095 19.0592 20.6881 19.0658 20.6659C19.1034 20.5356 19.1427 20.4009 19.0896 20.2643C18.9549 19.9092 18.8839 19.6258 18.8522 19.317C18.8145 18.9519 18.8393 18.5952 18.9269 18.2566C19.0833 17.6514 19.4242 17.2162 19.8627 17.0624C19.9713 17.024 20.0851 17.0078 20.1944 17.0078C20.3725 17.0078 20.5377 17.0518 20.6439 17.1154C20.8345 17.2304 20.957 17.4107 21.0177 17.6679C21.0758 17.9122 21.0594 18.2485 20.9687 18.6675C20.8732 19.1053 20.7604 19.4753 20.6407 19.8672C20.5634 20.1198 20.4852 20.3764 20.4098
    20.6575L20.3967 20.7066C20.2999 21.0649 20.1906 21.471 20.2936 21.9162C20.3872 22.3194 20.5939 22.6335 20.9253 22.8771C21.2545 23.1191 21.6409 23.2273 22.0938 23.2128C22.782 23.1889 23.3971 22.8273 23.9223 22.1385C24.4974 21.385 24.8577 20.3751 24.9931 19.1354C25.027 18.8194 25.0688 18.3432 25.0361 17.8569C24.9815 17.0414 24.7308 16.3449 24.2907 15.7866C23.8764 15.2609 23.3035 14.8664 22.6344 14.6457C21.9399 14.4167 21.0208 14.3579 20.2361 14.4936C18.8226 14.7385 17.7251 15.5355 17.0617 16.7991C16.698 17.4925 16.5211 18.2188 16.5211 19.0197C16.5211 19.6775 16.676 20.2478 16.9819 20.715C17.024 20.7796 17.0743 20.8397 17.1264 20.9004C17.1732 20.9553 17.2175 21.007 17.2445 21.0552C17.2637 21.1078 17.209 21.2901 17.1826 21.3776C17.1679 21.4271 17.1537 21.4745 17.1424 21.5188C17.1292 21.5705 17.1179 21.6257 17.1066 21.6813C17.0944 21.7421 17.0755 21.8361 17.0557 21.8878C16.9813 21.8577 16.8453 21.7808 16.7718 21.7249C16.2073 21.2926 16.0003 21.0145 15.717 20.3092C15.5043 19.779 15.3988 18.7299 15.5043 18.191C15.6221 17.5871 15.8731 16.8185 16.0754 16.4408C16.5299 15.5946 17.1892 14.9097 18.0351 14.405C18.7051 14.0057 19.4352 13.7518 20.2682 13.6293C20.5644 13.585 20.8785 13.5679 21.2014 13.5527C22.0338 13.5123 22.9067 13.6771 23.6575 14.0157C24.3133 14.312 24.8649 14.7126 25.3433 15.2409C25.8258 15.7727 26.1622 16.3865 26.3727 17.118C26.4829 17.4983 26.5385 17.9419 26.5385 18.4356C26.5382 18.8792 26.5021 19.285 26.4179 19.7925Z" fill="#3B4143" stroke="#3B4143" strokeWidth="0.5"/>
</svg>
