<svg width="18" height="18" viewBox="0 0 18 18" fill="none" xmlns="http://www.w3.org/2000/svg">
  <path fillRule="evenodd" clipRule="evenodd" d="M9 2.8125C6.82538 2.8125 5.0625 4.57538 5.0625 6.75C5.0625 8.92462 6.82538 10.6875 9 10.6875C11.1746 10.6875 12.9375 8.92462 12.9375 6.75C12.9375 4.57538 11.1746 2.8125 9 2.8125ZM3.9375 6.75C3.9375 3.95406 6.20406 1.6875 9 1.6875C11.7959 1.6875 14.0625 3.95406 14.0625 6.75C14.0625 9.54594 11.7959 11.8125 9 11.8125C6.20406 11.8125 3.9375 9.54594 3.9375 6.75Z" fill="#3B4143"/>
  <path fillRule="evenodd" clipRule="evenodd" d="M8.99996 11.8125C7.71624 11.8125 6.45511 12.1503 5.34327 12.792C4.23144 13.4337 3.30805 14.3567 2.66586 15.4682C2.51046 15.7372 2.16641 15.8293 1.89741 15.6739C1.62842 15.5185 1.53634 15.1744 1.69175 14.9055C2.43269 13.623 3.49809 12.558 4.78092 11.8176C6.06375 11.0772 7.51882 10.6875 8.99998 10.6875C10.4811 10.6875 11.9362 11.0773 13.219 11.8177C14.5018 12.5581 15.5672 13.6231 16.3081 14.9056C16.4635 15.1746 16.3714 15.5186 16.1024 15.674C15.8334 15.8294 15.4894 15.7374 15.334 15.4684C14.6918 14.3568 13.7685 13.4338 12.6566 12.7921C11.5448 12.1503 10.2837 11.8125 8.99996 11.8125Z" fill="#3B4143"/>
</svg>
