<svg
  width="112"
  height="28"
  viewBox="0 0 112 28"
  fill="none"
  xmlns="http://www.w3.org/2000/svg"
>
  <path
    d="M12.9837 23.9997H17.8942V18.0239H19.5899L22.7694 23.9997H28.1038L24.4298 17.246C26.3551 16.3178 27.5033 14.5587 27.5033 12.0481C27.5033 8.1939 24.8096 5.89551 20.7911 5.89551H12.4724C12.4724 5.89551 15.4176 8.27771 15.4176 11.8807C15.4176 15.4837 12.9837 17.4489 12.9837 17.4489V23.9997ZM17.8942 14.2051V9.82044H19.6253C21.3475 9.82044 22.3808 10.4923 22.3808 12.0481C22.3808 13.5951 21.3475 14.2051 19.6253 14.2051H17.8942Z"
    fill="#5C99FC"
  />
  <path
    d="M7.17145 18.3517C11.5785 18.3517 14.4577 15.6732 14.4489 11.8809C14.4577 8.44215 12.0555 6.01117 8.83184 6.01117C6.99482 6.01117 5.51107 6.82444 4.94583 7.9206H4.83985L5.19312 3.92494H13.3184V0H1.1658L0.459256 9.97146L4.76919 10.8201C5.18429 9.93611 6.1293 9.40571 7.17145 9.40571C8.67287 9.40571 9.72386 10.44 9.71502 12.0223C9.72386 13.6047 8.67287 14.639 7.17145 14.639C5.87317 14.639 4.80452 13.8434 4.76919 12.5881H0C0.0264955 15.965 3.00283 18.3517 7.17145 18.3517Z"
    fill="#F9F9F9"
  />
  <path
    d="M38.2783 16.75C38.2869 18.6341 37.0788 19.622 35.7679 19.622C34.3884 19.622 33.4974 18.5884 33.4888 16.9329V8.68293H29.8389V17.628C29.8474 20.9116 31.6467 22.9146 34.2942 22.9146C36.2734 22.9146 37.6957 21.8262 38.2868 20.1799H38.4239V22.7317H41.9282V8.68293H38.2783V16.75Z"
    fill="#F9F9F9"
  />
  <path
    d="M49.5834 14.6098C49.592 12.7988 50.603 11.7378 52.0767 11.7378C53.5418 11.7378 54.4243 12.7622 54.4157 14.4817V22.7317H58.0657V13.7866C58.0657 10.5122 56.2664 8.5 53.5247 8.5C51.5712 8.5 50.1575 9.52439 49.5663 11.1616H49.4121V8.68293H45.9335V22.7317H49.5834V14.6098Z"
    fill="#F9F9F9"
  />
  <path
    d="M64.6242 22.7317H68.4797L70.7417 13.8963H70.9045L73.1664 22.7317H77.0305L80.6034 8.68293H76.9192L74.9143 18.0671H74.8029L72.6438 8.68293H69.0195L66.8947 18.122H66.7747L64.7356 8.68293H61.0428L64.6242 22.7317Z"
    fill="#F9F9F9"
  />
  <path
    d="M88.1558 22.9604C90.2806 22.9604 91.3859 21.6524 91.8914 20.4817H92.0456V22.7317H95.6441V8.68293H92.0028V11.0427H91.8914C91.403 9.89939 90.3491 8.5 88.1472 8.5C85.2598 8.5 82.8179 10.8963 82.8179 15.7256C82.8179 20.4268 85.157 22.9604 88.1558 22.9604ZM89.3124 19.8598C87.5217 19.8598 86.545 18.1585 86.545 15.7073C86.545 13.2744 87.5046 11.6006 89.3124 11.6006C91.086 11.6006 92.0799 13.2012 92.0799 15.7073C92.0799 18.2134 91.0688 19.8598 89.3124 19.8598Z"
    fill="#F9F9F9"
  />
  <path
    d="M101.984 28C104.7 28 106.14 26.5183 106.885 24.25L112 8.70122L108.136 8.68293L105.386 19H105.249L102.524 8.68293H98.6855L103.406 23.1341L103.192 23.7287C102.712 25.0457 101.796 25.1098 100.51 24.689L99.6879 27.5976C100.211 27.8354 101.059 28 101.984 28Z"
    fill="#F9F9F9"
  />
</svg>
