<svg width="12" height="9" viewBox="0 0 12 9" fill="none" xmlns="http://www.w3.org/2000/svg">
  <path fillRule="evenodd" clipRule="evenodd" d="M2.27682 0.245978C2.33377 0.0974156 2.47166 0 2.625 0L9.375 7.46354e-07C9.52834 7.69677e-07 9.66623 0.0974164 9.72318 0.245978L11.9732 6.11554C11.9909 6.16177 12 6.21109 12 6.26087C12 6.70345 11.8962 7.37743 11.5103 7.95266C11.1093 8.5505 10.43 9 9.375 9C8.32001 9 7.64071 8.5505 7.23966 7.95266C6.85378 7.37743 6.75 6.70345 6.75 6.26087C6.75 6.21109 6.7591 6.16177 6.77682 6.11554L8.82111 0.782609L3.17889 0.782609L5.22318 6.11554C5.2409 6.16176 5.25 6.21109 5.25 6.26087C5.25 6.70345 5.14622 7.37743 4.76034 7.95266C4.35929 8.55049 3.67999 9 2.625 9C1.57001 9 0.89071 8.55049 0.489663 7.95266C0.103782 7.37743 0 6.70345 0 6.26087C0 6.21109 0.00910319 6.16176 0.0268213 6.11554L2.27682 0.245978ZM2.625 1.44492L4.32111 5.86956H0.928887L2.625 1.44492ZM0.782934 6.65217H4.46707C4.4217 6.92899 4.32455 7.23757 4.14591 7.50386C3.89071 7.88429 3.44501 8.21739 2.625 8.21739C1.80499 8.21739 1.35929 7.88429 1.10409 7.50386C0.925453 7.23757 0.828298 6.92899 0.782934 6.65217ZM9.375 1.44492L7.67889 5.86957H11.0711L9.375 1.44492ZM11.2171 6.65218H7.53293C7.5783 6.92899 7.67545 7.23758 7.85409 7.50386C8.10929 7.88429 8.55499 8.21739 9.375 8.21739C10.195 8.21739 10.6407 7.88429 10.8959 7.50386C11.0745 7.23758 11.1717 6.92899 11.2171 6.65218Z" fill="#4F4F4F"/>
</svg>
