<svg width="42" height="42" viewBox="0 0 42 42" fill="none" xmlns="http://www.w3.org/2000/svg">
<circle cx="21" cy="21" r="21" fill="#F9F9F9"/>
<g clip-path="url(#clip0_3250_4086)">
<path d="M15.2694 13.0674C14.7037 13.0674 14.1894 13.2682 13.8037 13.6446C13.3922 14.0462 13.1865 14.5481 13.1865 15.0752C13.1865 15.6274 13.418 16.1293 13.8037 16.5058C14.1894 16.8823 14.7294 17.1081 15.2437 17.0831C15.2437 17.0831 15.2694 17.0831 15.2951 17.0831C15.8094 17.0831 16.298 16.8823 16.6837 16.5058C17.0694 16.1293 17.3008 15.6274 17.3008 15.0752C17.3265 14.5481 17.0951 14.0462 16.7094 13.6697C16.3237 13.2681 15.8094 13.0674 15.2694 13.0674ZM16.3237 16.1544C16.0408 16.4305 15.6551 16.6062 15.2437 16.5811C14.858 16.5811 14.4465 16.4305 14.1637 16.1544C13.8551 15.8784 13.7008 15.4768 13.7008 15.0752C13.7008 14.6737 13.8551 14.2972 14.1637 13.996C14.4465 13.7199 14.8323 13.5694 15.2694 13.5694C15.6551 13.5694 16.0408 13.7199 16.3237 13.996C16.6322 14.2972 16.7865 14.6737 16.7865 15.0752C16.7865 15.4768 16.6322 15.8784 16.3237 16.1544Z" fill="#3B4143" stroke="#3B4143" stroke-width="0.5"/>
<path d="M16.2724 17.585H14.1896C13.7782 17.585 13.4438 17.9112 13.4438 18.3379V27.1222C13.4438 27.5238 13.8039 27.8752 14.2153 27.8752H16.2724C16.6838 27.8752 17.0439 27.5238 17.0439 27.1473V18.3379C17.0439 17.9363 16.6838 17.585 16.2724 17.585ZM16.5296 27.1473C16.5296 27.2728 16.401 27.3732 16.2724 27.3732H14.2153C14.0867 27.3732 13.9581 27.2477 13.9581 27.1222V18.3379C13.9581 18.2124 14.061 18.0869 14.1896 18.0869H16.2724C16.401 18.0869 16.5296 18.2124 16.5296 18.3379V27.1473Z" fill="#3B4143" stroke="#3B4143" stroke-width="0.5"/>
<path d="M25.0146 17.334H24.4746C23.4718 17.334 22.5204 17.7607 21.9032 18.4383V18.0869C21.9032 17.836 21.6461 17.585 21.3889 17.585H18.8175C18.5861 17.585 18.3032 17.7857 18.3032 18.0618V27.4234C18.3032 27.6994 18.5861 27.8751 18.8175 27.8751H21.6461C21.8775 27.8751 22.1604 27.6994 22.1604 27.4234V22.0022C22.1604 21.174 22.7775 20.5214 23.5747 20.5214C23.9861 20.5214 24.3718 20.672 24.6547 20.9481C24.9118 21.174 25.0147 21.5253 25.0147 21.9771V27.3732C25.0147 27.6242 25.2718 27.8752 25.529 27.8752H28.1004C28.3575 27.8752 28.6147 27.6242 28.6147 27.3732V20.8979C28.6147 18.8901 27.0461 17.334 25.0146 17.334ZM28.1004 27.3481L28.0747 27.3732H25.5546L25.5289 21.9771C25.5289 21.3748 25.3747 20.923 25.0404 20.5967C24.6547 20.2203 24.1404 20.0195 23.6004 20.0195C22.5204 20.0446 21.6718 20.8979 21.6718 22.0022V27.3732H18.8432V18.0869H21.3889L21.4146 18.112V19.6932L22.1089 19.0155L22.1346 18.9905C22.6489 18.2877 23.5489 17.836 24.5004 17.836H25.0404C26.7632 17.836 28.1004 19.1912 28.1004 20.8979V27.3481Z" fill="#3B4143" stroke="#3B4143" stroke-width="0.5"/>
</g>
<defs>
<clipPath id="clip0_3250_4086">
<rect width="18" height="16" fill="white" transform="translate(12 12)"/>
</clipPath>
</defs>
</svg>
