<svg width="42" height="42" viewBox="0 0 42 42" fill="none" xmlns="http://www.w3.org/2000/svg">
  <circle cx="21" cy="21" r="21" fill="#F9F9F9"/>
  <path d="M12.3542 26.696C14.0207 27.7535 15.9602 28.3123 17.9627 28.3123C20.8952 28.3123 23.5825 27.1858 25.5302 25.1405C27.394 23.183 28.4192 20.5528 28.3682 17.8835C29.0747 17.279 29.9057 16.1248 29.9057 14.9998C29.9057 14.5685 29.4377 14.2948 29.0582 14.5145C28.3945 14.9045 27.7892 15.0065 27.1667 14.8318C25.8955 13.5928 24.0032 13.3318 22.4087 14.1913C21.0152 14.9413 20.2405 16.3138 20.3102 17.8138C17.956 17.5265 15.781 16.346 14.2645 14.5115C14.0155 14.2123 13.543 14.2475 13.345 14.5865C12.6145 15.8375 12.622 17.2873 13.2572 18.458C12.955 18.5113 12.7682 18.7655 12.7682 19.0408C12.7682 20.2175 13.2977 21.299 14.1505 22.037C13.9915 22.19 13.939 22.4173 14.0065 22.6198C14.3815 23.7463 15.2305 24.6268 16.2917 25.0678C15.1375 25.619 13.861 25.8028 12.7247 25.6633C12.1367 25.5838 11.8465 26.3743 12.3542 26.696ZM18.1165 25.2605C18.5372 24.9373 18.3137 24.2638 17.7857 24.2525C16.8557 24.233 16.009 23.7748 15.4817 23.054C15.736 23.0375 15.9992 22.9985 16.2497 22.931C16.8205 22.7765 16.7935 21.953 16.2137 21.8368C15.1615 21.6253 14.3357 20.8588 14.026 19.8718C14.3087 19.9415 14.5967 19.9805 14.884 19.9858C15.4532 19.9888 15.6685 19.259 15.2042 18.9538C14.158 18.2645 13.7117 17.0473 14.0072 15.9028C15.8342 17.7538 18.313 18.869 20.935 18.995C21.3107 19.0183 21.5927 18.665 21.5102 18.3073C21.154 16.763 22.0165 15.6808 22.9427 15.182C23.8592 14.687 25.3307 14.5325 26.4587 15.716C26.794 16.0693 27.925 16.0828 28.5002 15.9485C28.2422 16.4345 27.8455 16.8958 27.4742 17.1553C27.316 17.2663 27.2252 17.4508 27.235 17.6435C27.3557 20.1073 26.4377 22.5568 24.7165 24.3635C22.9825 26.1838 20.5847 27.1865 17.9635 27.1865C16.921 27.1865 15.8987 27.017 14.9327 26.69C16.0877 26.4665 17.185 25.9775 18.1165 25.2605Z" fill="#3B4143"/>
</svg>
