<svg width="18" height="18" viewBox="0 0 18 18" fill="none" xmlns="http://www.w3.org/2000/svg">
  <path fillRule="evenodd" clipRule="evenodd" d="M11.0944 2.54978C11.6268 2.3376 12.1968 2.23612 12.7697 2.25152C13.3427 2.26693 13.9064 2.3989 14.4266 2.63939C14.9466 2.87976 15.4122 3.22351 15.795 3.64968C15.7951 3.64978 15.7952 3.64988 15.7953 3.64998C17.3465 5.37296 17.0754 8.01583 15.4931 9.59815L9.7955 15.2957C9.58452 15.5067 9.29837 15.6252 9 15.6252C8.70163 15.6252 8.41548 15.5067 8.20451 15.2957L2.36065 9.45186L2.36064 9.45185C1.95539 9.04659 1.63696 8.56301 1.42478 8.03061C1.2126 7.49822 1.11112 6.92817 1.12652 6.35526C1.14193 5.78235 1.2739 5.21858 1.51439 4.69836C1.75482 4.17826 2.09867 3.71259 2.52498 3.32974C4.24796 1.77853 6.89083 2.04961 8.47315 3.63193L9 4.15879L9.67315 3.48565L9.67316 3.48564C10.0784 3.08039 10.562 2.76196 11.0944 2.54978ZM12.7395 3.37612C12.3194 3.36482 11.9013 3.43924 11.5109 3.59484C11.1205 3.75045 10.7658 3.98396 10.4686 4.28115L9.39775 5.35203C9.17808 5.5717 8.82192 5.5717 8.60225 5.35203L7.67765 4.42742C6.46017 3.20994 4.49699 3.06787 3.27749 4.16602L3.27689 4.16655C2.96416 4.44735 2.71192 4.78892 2.53556 5.17042C2.3592 5.55193 2.26242 5.96536 2.25112 6.3855C2.23982 6.80564 2.31424 7.22368 2.46984 7.61411C2.62544 8.00454 2.85896 8.35917 3.15614 8.65636C3.15615 8.65637 3.15615 8.65637 3.15615 8.65637L9 14.5002L14.6976 8.80265C15.9151 7.58517 16.0571 5.62199 14.959 4.40249L14.9585 4.40189C14.6777 4.08916 14.3361 3.83692 13.9546 3.66056C13.5731 3.4842 13.1596 3.38742 12.7395 3.37612Z" fill="#3B4143"/>
</svg>
