<svg width="18" height="18" viewBox="0 0 18 18" fill="none" xmlns="http://www.w3.org/2000/svg">
  <path fillRule="evenodd" clipRule="evenodd" d="M8.15625 2.81152C5.20498 2.81152 2.8125 5.204 2.8125 8.15527C2.8125 11.1065 5.20498 13.499 8.15625 13.499C11.1075 13.499 13.5 11.1065 13.5 8.15527C13.5 5.204 11.1075 2.81152 8.15625 2.81152ZM1.6875 8.15527C1.6875 4.58268 4.58366 1.68652 8.15625 1.68652C11.7288 1.68652 14.625 4.58268 14.625 8.15527C14.625 11.7279 11.7288 14.624 8.15625 14.624C4.58366 14.624 1.6875 11.7279 1.6875 8.15527Z" fill="#3B4143"/>
  <path fillRule="evenodd" clipRule="evenodd" d="M11.9348 11.9343C12.1544 11.7146 12.5106 11.7146 12.7303 11.9343L16.1475 15.3515C16.3672 15.5712 16.3672 15.9273 16.1475 16.147C15.9278 16.3667 15.5717 16.3667 15.352 16.147L11.9348 12.7298C11.7151 12.5101 11.7151 12.154 11.9348 11.9343Z" fill="#3B4143"/>
</svg>
