<svg width="42" height="42" viewBox="0 0 42 42" fill="none" xmlns="http://www.w3.org/2000/svg">
<circle cx="21" cy="21" r="21" fill="#F9F9F9"/>
<g clip-path="url(#clip0_3250_4058)">
<path d="M29.4709 15.1446L29.4706 15.1437C29.2471 14.5523 28.9034 14.0233 28.4534 13.5835L28.452 13.5822L28.452 13.5822C28.012 13.1353 27.4792 12.7881 26.8951 12.5683L26.8943 12.568C26.3322 12.3507 25.6889 12.198 24.7424 12.1562L24.742 12.1562C23.7809 12.1106 23.4768 12.1 21.0335 12.1C18.5902 12.1 18.286 12.1106 17.3282 12.1526C16.3815 12.1944 15.7349 12.3473 15.1765 12.5643L15.1756 12.5647L15.1756 12.5647C14.5841 12.7882 14.055 13.1318 13.6153 13.5819L13.6139 13.5833L13.6139 13.5833C13.1671 14.0233 12.82 14.556 12.6 15.1402L12.5997 15.141L12.5997 15.141C12.3824 15.7032 12.2297 16.3463 12.188 17.2929L12.1879 17.2932C12.1423 18.2544 12.1317 18.5584 12.1317 21.0018C12.1317 23.4451 12.1423 23.7493 12.1844 24.7071L29.4709 15.1446ZM29.4709 15.1446C29.6881 15.7031 29.8409 16.3498 29.8826 17.2964M29.4709 15.1446L12.5962 26.8589M12.5962 26.8589L12.5966 26.8598C12.8199 27.4509 13.167 27.9802 13.6139 28.4202L13.615 28.4213C14.055 28.8682 14.5878 29.2154 15.1719 29.4352L15.1727 29.4355C15.7349 29.6528 16.3781 29.8056 17.3248 29.8473C18.2824 29.8895 18.5867 29.8999 21.0301 29.8999C23.4734 29.8999 23.7776 29.8895 24.7354 29.8473C25.682 29.8056 26.3287 29.6528 26.8871 29.4356L26.8873 29.4355C28.0707 28.978 29.0063 28.0424 29.4638 26.8591C29.681 26.2969 29.8339 25.6536 29.8756 24.7071C29.9177 23.7493 29.9282 23.4451 29.9282 21.0018C29.9282 18.5578 29.9247 18.254 29.8826 17.2964M12.5962 26.8589C12.379 26.3004 12.2261 25.6537 12.1844 24.7071L12.5962 26.8589ZM29.8826 17.2964L29.9825 17.292M29.8826 17.2964C29.8826 17.2964 29.8826 17.2964 29.8826 17.2965L29.9825 17.292M29.9825 17.292C29.9403 16.3356 29.7857 15.6781 29.5641 15.1084M29.9825 17.292C30.0247 18.252 30.0282 18.5579 30.0282 21.0018C30.0282 23.4456 30.0177 23.7515 29.9755 24.7115C29.9333 25.6679 29.7785 26.322 29.5571 26.8952L29.5641 15.1084M29.5641 15.1084C29.3356 14.5036 28.9839 13.9621 28.5232 13.512C28.0731 13.0549 27.5281 12.6997 26.9303 12.4747L29.5641 15.1084ZM28.1453 26.3476C27.8327 27.1579 27.1897 27.801 26.3794 28.1136C26.053 28.2405 25.5641 28.3905 24.6773 28.4296M28.1453 26.3476L17.3967 28.4296M28.1453 26.3476C28.2722 26.0213 28.4222 25.5359 28.4615 24.6455M28.1453 26.3476L28.4615 24.6455M24.6773 28.4296L24.6729 28.3297L24.6773 28.4296C24.6773 28.4296 24.6773 28.4296 24.6773 28.4296ZM24.6773 28.4296C23.7257 28.472 23.4392 28.4824 21.0371 28.4824C18.6349 28.4824 18.3448 28.472 17.3967 28.4296M17.3967 28.4296L17.4011 28.33L17.3967 28.4296C17.3967 28.4296 17.3967 28.4296 17.3967 28.4296ZM28.4615 24.6455C28.5037 23.694 28.5143 23.411 28.5143 21.0088C28.5143 18.6065 28.5037 18.3201 28.4615 17.3685C28.4223 16.4824 28.2725 15.9936 28.1456 15.6673C27.9964 15.2637 27.7601 14.9001 27.4514 14.5983C27.1527 14.289 26.7852 14.0528 26.3821 13.9038M28.4615 24.6455C28.4615 24.6456 28.4615 24.6456 28.4615 24.6456L28.3616 24.6411L26.3821 13.9038M17.4003 13.5879C16.5143 13.6271 16.0254 13.7769 15.699 13.9038C15.2955 14.0529 14.932 14.2891 14.6304 14.5977C14.3173 14.8967 14.081 15.2641 13.932 15.6672C13.8051 15.9936 13.6553 16.4789 13.6162 17.3685L24.6809 13.5879M17.4003 13.5879L17.4047 13.6878L17.4003 13.5879C17.4003 13.5879 17.4003 13.5879 17.4003 13.5879ZM17.4003 13.5879C18.3518 13.5457 18.6384 13.5351 21.0405 13.5351C23.4463 13.5351 23.7327 13.5457 24.6809 13.5879M24.6809 13.5879C25.5705 13.6271 26.0558 13.7769 26.3821 13.9038M24.6809 13.5879L26.3821 13.9038M14.6262 27.4192C14.9249 27.7285 15.2923 27.9648 15.6954 28.1139L13.6162 24.6491C13.6162 24.6491 13.6162 24.6491 13.6162 24.6492C13.6553 25.5351 13.8051 26.024 13.932 26.3504C14.0812 26.7539 14.3175 27.1174 14.6262 27.4192Z" fill="#393939" stroke="white" stroke-width="0.2"/>
<path d="M16.5592 21.0019C16.5592 18.5318 18.5632 16.5279 21.0331 16.5279C23.5032 16.5279 25.5071 18.5318 25.5071 21.0019C25.5071 23.4719 23.5032 25.4758 21.0331 25.4758C18.5632 25.4758 16.5592 23.4719 16.5592 21.0019ZM17.8837 21.0019C17.8837 22.741 19.2942 24.1513 21.0331 24.1513C22.7722 24.1513 24.1826 22.741 24.1826 21.0019C24.1826 19.2628 22.7722 17.8524 21.0331 17.8524C19.2942 17.8524 17.8837 19.2628 17.8837 21.0019Z" fill="#393939" stroke="white" stroke-width="0.3"/>
<path d="M27 16C27 16.5522 26.5523 17 25.9999 17C25.4477 17 25 16.5522 25 16C25 15.4476 25.4477 15 25.9999 15C26.5523 15 27 15.4476 27 16V16Z" fill="#393939"/>
</g>
<defs>
<clipPath id="clip0_3250_4058">
<rect width="18" height="18" fill="white" transform="translate(12 12)"/>
</clipPath>
</defs>
</svg>

