<svg width="80" height="20" viewBox="0 0 80 20" fill="none" xmlns="http://www.w3.org/2000/svg">
  <path d="M9.27392 17.1425H12.7814V12.8741H13.9926L16.2637 17.1425H20.074L17.4497 12.3184C18.8249 11.6554 19.645 10.3989 19.645 8.60566C19.645 5.85264 17.7209 4.21094 14.8506 4.21094H8.90869C8.90869 4.21094 11.0124 5.91251 11.0124 8.48607C11.0124 11.0596 9.27392 12.4634 9.27392 12.4634V17.1425ZM12.7814 10.1463V7.01446H14.0179C15.248 7.01446 15.9861 7.49435 15.9861 8.60566C15.9861 9.71065 15.248 10.1463 14.0179 10.1463H12.7814Z" fill="#5C99FC"/>
  <path d="M5.12247 13.1084C8.27039 13.1084 10.3269 11.1952 10.3206 8.48635C10.3269 6.03011 8.61104 4.29369 6.30846 4.29369C4.9963 4.29369 3.93648 4.8746 3.53274 5.65757H3.45703L3.70937 2.80353H9.51315V0H0.832716L0.32804 7.12247L3.40657 7.72864C3.70306 7.09722 4.37807 6.71836 5.12247 6.71836C6.19491 6.71836 6.94561 7.45713 6.9393 8.58738C6.94561 9.71763 6.19491 10.4564 5.12247 10.4564C4.19512 10.4564 3.4318 9.88812 3.40657 8.99149H0C0.0189254 11.4035 2.14488 13.1084 5.12247 13.1084Z" fill="#3B4143"/>
  <path d="M27.3416 11.9641C27.3477 13.31 26.4848 14.0155 25.5485 14.0155C24.5632 14.0155 23.9267 13.2773 23.9206 12.0948V6.20195H21.3135V12.5913C21.3196 14.9367 22.6048 16.3675 24.4959 16.3675C25.9096 16.3675 26.9255 15.59 27.3477 14.4141H27.4457V16.2368H29.9487V6.20195H27.3416V11.9641Z" fill="#3B4143"/>
  <path d="M35.4167 10.4354C35.4228 9.14185 36.145 8.38401 37.1976 8.38401C38.2441 8.38401 38.8745 9.11571 38.8684 10.3439V16.2368H41.4755V9.84742C41.4755 7.50857 40.1903 6.07129 38.2319 6.07129C36.8366 6.07129 35.8268 6.803 35.4045 7.97242H35.2943V6.20195H32.8096V16.2368H35.4167V10.4354Z" fill="#3B4143"/>
  <path d="M46.1601 16.2368H48.9141L50.5298 9.92582H50.646L52.2617 16.2368H55.0218L57.5738 6.20195H54.9423L53.5102 12.9049H53.4306L51.8884 6.20195H49.2997L47.7819 12.9441H47.6962L46.2397 6.20195H43.602L46.1601 16.2368Z" fill="#3B4143"/>
  <path d="M62.9684 16.4001C64.4861 16.4001 65.2756 15.4659 65.6367 14.6297H65.7468V16.2368H68.3172V6.20195H65.7162V7.88749H65.6367C65.2879 7.07085 64.5351 6.07129 62.9623 6.07129C60.8998 6.07129 59.1557 7.78296 59.1557 11.2324C59.1557 14.5905 60.8264 16.4001 62.9684 16.4001ZM63.7946 14.1854C62.5155 14.1854 61.8178 12.9702 61.8178 11.2194C61.8178 9.48157 62.5033 8.28601 63.7946 8.28601C65.0614 8.28601 65.7713 9.4293 65.7713 11.2194C65.7713 13.0094 65.0492 14.1854 63.7946 14.1854Z" fill="#3B4143"/>
  <path d="M72.8458 19.9999C74.7858 19.9999 75.814 18.9415 76.3464 17.3213L80 6.21502L77.2399 6.20195L75.2754 13.5713H75.1775L73.2314 6.20195H70.4896L73.8617 16.5243L73.7087 16.9489C73.366 17.8897 72.7112 17.9354 71.7932 17.6349L71.2057 19.7124C71.579 19.8823 72.1848 19.9999 72.8458 19.9999Z" fill="#3B4143"/>
</svg>
