<svg width="42" height="42" viewBox="0 0 42 42" fill="none" xmlns="http://www.w3.org/2000/svg">
  <circle cx="21" cy="21" r="21" fill="#F9F9F9"/>
  <path fillRule="evenodd" clipRule="evenodd" d="M13.8354 15.5574C14.0453 15.3284 14.4011 15.3129 14.6301 15.5229L21 21.3619L27.3699 15.5229C27.5989 15.3129 27.9547 15.3284 28.1647 15.5574C28.3746 15.7864 28.3591 16.1422 28.1301 16.3522L21.3801 22.5397C21.165 22.7368 20.835 22.7368 20.6199 22.5397L13.8699 16.3522C13.6409 16.1422 13.6254 15.7864 13.8354 15.5574Z" fill="#3B4143"/>
  <path fillRule="evenodd" clipRule="evenodd" d="M13.6875 15.9375C13.6875 15.6268 13.9393 15.375 14.25 15.375H27.75C28.0607 15.375 28.3125 15.6268 28.3125 15.9375V25.5C28.3125 25.7984 28.194 26.0845 27.983 26.2955C27.772 26.5065 27.4859 26.625 27.1875 26.625H14.8125C14.5141 26.625 14.228 26.5065 14.017 26.2955C13.806 26.0845 13.6875 25.7984 13.6875 25.5V15.9375ZM14.8125 16.5V24.7837L19.3925 20.5854C19.6215 20.3754 19.9773 20.3909 20.1873 20.6199C20.3972 20.8489 20.3817 21.2047 20.1527 21.4147L15.696 25.5H26.3038L21.847 21.4146C21.618 21.2047 21.6025 20.8489 21.8124 20.6199C22.0223 20.3909 22.3781 20.3754 22.6071 20.5853L27.1875 24.784V16.5H14.8125Z" fill="#3B4143"/>
</svg>
