<svg width="122" height="30" viewBox="0 0 122 30" fill="none" xmlns="http://www.w3.org/2000/svg">
  <path d="M14.1429 25.7138H19.4918V19.3111H21.339L24.8023 25.7138H30.613L26.6109 18.4777C28.7082 17.4832 29.9588 15.5984 29.9588 12.9085C29.9588 8.77896 27.0246 6.31641 22.6473 6.31641H13.5859C13.5859 6.31641 16.7941 8.86877 16.7941 12.7291C16.7941 16.5894 14.1429 18.6951 14.1429 18.6951V25.7138ZM19.4918 15.2195V10.5217H21.3774C23.2534 10.5217 24.379 11.2415 24.379 12.9085C24.379 14.566 23.2534 15.2195 21.3774 15.2195H19.4918Z" fill="#5C99FC"/>
  <path d="M7.81176 19.6626C12.6123 19.6626 15.7486 16.7927 15.739 12.7295C15.7486 9.04516 13.1318 6.44054 9.6204 6.44054C7.61936 6.44054 6.00313 7.3119 5.38742 8.48635H5.27198L5.65679 4.20529H14.5076V0H1.26989L0.500261 10.6837L5.19501 11.593C5.64717 10.6458 6.67656 10.0775 7.81176 10.0775C9.44723 10.0775 10.5921 11.1857 10.5824 12.8811C10.5921 14.5764 9.44723 15.6846 7.81176 15.6846C6.39756 15.6846 5.2335 14.8322 5.19501 13.4872H0C0.0288612 17.1053 3.27094 19.6626 7.81176 19.6626Z" fill="#3B4143"/>
  <path d="M41.6959 17.9467C41.7052 19.9654 40.3893 21.0238 38.9613 21.0238C37.4587 21.0238 36.4881 19.9164 36.4788 18.1427V9.30342H32.5029V18.8875C32.5123 22.4055 34.4722 24.5517 37.3561 24.5517C39.512 24.5517 41.0612 23.3855 41.7052 21.6216H41.8545V24.3557H45.6717V9.30342H41.6959V17.9467Z" fill="#3B4143"/>
  <path d="M54.0104 15.6536C54.0197 13.7133 55.121 12.5765 56.7263 12.5765C58.3222 12.5765 59.2835 13.6741 59.2742 15.5164V24.3557H63.25V14.7716C63.25 11.2633 61.2901 9.10742 58.3035 9.10742C56.1756 9.10742 54.6357 10.205 53.9917 11.9591H53.8237V9.30342H50.0346V24.3557H54.0104V15.6536Z" fill="#3B4143"/>
  <path d="M70.3941 24.3557H74.5939L77.0578 14.8892H77.2351L79.699 24.3557H83.9082L87.8 9.30342H83.7868L81.6029 19.3579H81.4816L79.1297 9.30342H75.1819L72.8673 19.4167H72.7366L70.5154 9.30342H66.4929L70.3941 24.3557Z" fill="#3B4143"/>
  <path d="M96.0267 24.6007C98.3412 24.6007 99.5452 23.1993 100.096 21.945H100.264V24.3557H104.184V9.30342H100.217V11.8317H100.096C99.5639 10.6068 98.4159 9.10742 96.0173 9.10742C92.8722 9.10742 90.2123 11.6749 90.2123 16.8491C90.2123 21.8862 92.7602 24.6007 96.0267 24.6007ZM97.2866 21.2786C95.336 21.2786 94.2721 19.4559 94.2721 16.8295C94.2721 14.2228 95.3174 12.4295 97.2866 12.4295C99.2185 12.4295 100.301 14.1444 100.301 16.8295C100.301 19.5147 99.1999 21.2786 97.2866 21.2786Z" fill="#3B4143"/>
  <path d="M111.09 30.0003C114.048 30.0003 115.616 28.4127 116.428 25.9824L122 9.32301L117.791 9.30342L114.795 20.3574H114.646L111.678 9.30342H107.497L112.639 24.7869L112.406 25.4238C111.883 26.835 110.884 26.9036 109.484 26.4528L108.589 29.5691C109.158 29.8239 110.082 30.0003 111.09 30.0003Z" fill="#3B4143"/>
</svg>
